<?xml version="1.0" encoding="UTF-8" standalone="no"?>
<!-- Created with Inkscape (http://www.inkscape.org/) -->

<svg
   width="1200mm"
   height="500mm"
   viewBox="0 0 1200 500"
   version="1.1"
   id="svg1"
   xml:space="preserve"
   xmlns="http://www.w3.org/2000/svg"
   xmlns:svg="http://www.w3.org/2000/svg"><defs
     id="defs1"><rect
       x="252.01385"
       y="261.63269"
       width="1506.3118"
       height="357.82117"
       id="rect1" /></defs><g
     id="layer1"><text
       xml:space="preserve"
       transform="matrix(0.7731014,0,0,0.7731014,170.7457,-11.000985)"
       id="text1"
       style="font-size:192px;text-align:start;writing-mode:lr-tb;direction:ltr;white-space:pre;shape-inside:url(#rect1);display:inline;fill:#ffffff;fill-opacity:1"><tspan
         x="252.01367"
         y="438.07031"
         id="tspan3"><tspan
           style="font-family:Bahnschrift;-inkscape-font-specification:Bahnschrift"
           id="tspan2">ourneyman</tspan></tspan></text><g
       style="shape-rendering:geometricPrecision;text-rendering:geometricPrecision"
       id="g1"
       transform="matrix(1.015625,0,0,1.015625,8.9054375,-1.5625)"><rect
         width="119.68543"
         height="60"
         rx="0"
         ry="0"
         transform="matrix(1.169733,0,0,1,70.0008,100)"
         fill="#ffffff"
         stroke-width="0"
         id="rect1-9"
         x="0"
         y="0" /><rect
         width="120"
         height="60"
         rx="0"
         ry="0"
         transform="translate(190,360)"
         fill="#ffffff"
         stroke-width="0"
         id="rect2"
         x="0"
         y="0" /><rect
         width="140"
         height="60"
         rx="0"
         ry="0"
         transform="translate(290,100)"
         fill="#ffffff"
         stroke-width="0"
         id="rect3"
         x="0"
         y="0" /><rect
         width="20.249447"
         height="37.035664"
         rx="0"
         ry="0"
         transform="matrix(1.481522,0,0,0.54002,125,160)"
         fill="#ffffff"
         stroke-width="0"
         id="rect4"
         x="0"
         y="0" /><rect
         width="18.41519"
         height="37.035938"
         rx="0"
         ry="0"
         transform="matrix(1.62909,0,0,0.540016,345,160)"
         fill="#ffffff"
         stroke-width="0"
         id="rect5"
         x="0"
         y="0" /><rect
         width="240"
         height="30"
         rx="0"
         ry="0"
         transform="matrix(1.041667,0,0,1,125,180)"
         fill="#ffffff"
         stroke-width="0"
         id="rect6"
         x="0"
         y="0" /><rect
         width="30"
         height="153.08122"
         rx="0"
         ry="0"
         transform="matrix(1,0,0,0.979872,235,210)"
         fill="#ffffff"
         stroke-width="0"
         id="rect7"
         x="0"
         y="0" /></g></g></svg>
