<svg id="enqmIH70fXJ1" xmlns="http://www.w3.org/2000/svg" xmlns:xlink="http://www.w3.org/1999/xlink" viewBox="0 0 500 500" shape-rendering="geometricPrecision" text-rendering="geometricPrecision" project-id="9786c0a19366409cb58378b8fd20375e" export-id="8ea9db4e5aa04cf782fa18eba31121d2" cached="false"><rect width="119.685432" height="60" rx="0" ry="0" transform="matrix(1.169733 0 0 1 70.0008 100)" fill="#fff" stroke-width="0"/><rect width="120" height="60" rx="0" ry="0" transform="translate(190 360.000001)" fill="#fff" stroke-width="0"/><rect width="140" height="60" rx="0" ry="0" transform="translate(290 100)" fill="#fff" stroke-width="0"/><rect width="20.249446" height="37.035665" rx="0" ry="0" transform="matrix(1.481522 0 0 0.54002 125 160)" fill="#fff" stroke-width="0"/><rect width="18.415189" height="37.03594" rx="0" ry="0" transform="matrix(1.62909 0 0 0.540016 344.999999 159.999999)" fill="#fff" stroke-width="0"/><rect width="240" height="30" rx="0" ry="0" transform="matrix(1.041667 0 0 1 125 180)" fill="#fff" stroke-width="0"/><rect width="30" height="153.081219" rx="0" ry="0" transform="matrix(1 0 0 0.979872 235 210)" fill="#fff" stroke-width="0"/></svg>
